<?xml version="1.0" standalone="no"?>
<!DOCTYPE svg PUBLIC "-//W3C//DTD SVG 20010904//EN"
 "http://www.w3.org/TR/2001/REC-SVG-20010904/DTD/svg10.dtd">
<svg version="1.0" xmlns="http://www.w3.org/2000/svg"
 width="1200.000000pt" height="1200.000000pt" viewBox="0 0 1200.000000 1200.000000"
 preserveAspectRatio="xMidYMid meet">

<g transform="translate(0.000000,1200.000000) scale(0.100000,-0.100000)"
fill="#000000" stroke="none">
<path d="M1738 8923 c-3 -1655 -1 -3122 3 -3260 12 -349 31 -495 90 -675 41
-125 250 -666 310 -799 304 -685 898 -1479 1887 -2523 485 -513 1048 -978
1732 -1433 91 -60 193 -126 228 -147 l63 -38 192 127 c411 273 692 482 1010
748 1622 1359 2678 2784 3001 4047 72 283 99 843 116 2400 11 1004 13 3847 3
4273 l-6 287 -4312 0 -4312 0 -5 -3007z m8382 295 c-1 -3473 -9 -3820 -96
-4154 -28 -110 -179 -516 -254 -684 -226 -509 -632 -1143 -1080 -1690 -480
-586 -885 -1002 -1380 -1421 -195 -165 -522 -426 -660 -525 -245 -177 -588
-414 -599 -414 -16 0 -182 112 -441 296 -465 331 -691 520 -1210 1009 -865
816 -1498 1613 -1974 2490 -211 389 -372 855 -434 1255 -14 95 -16 402 -16
3207 l-1 3103 4073 0 4072 0 0 -2472z"/>
<path d="M2218 8563 c1 -1589 6 -2985 11 -3103 l10 -215 46 -154 c92 -309 175
-514 336 -831 270 -534 649 -1067 1190 -1675 172 -193 952 -980 1134 -1143
233 -209 494 -411 932 -719 l171 -122 294 217 c435 322 566 427 913 731 1021
892 1879 1986 2314 2951 147 325 241 608 266 801 33 245 35 451 60 5057 l6
1092 -3843 0 -3843 0 3 -2887z m4077 1602 c130 -517 238 -941 239 -943 5 -4
103 111 184 215 155 197 315 301 537 348 115 25 345 30 444 11 188 -35 369
-163 445 -313 17 -35 50 -163 43 -170 -3 -2 -54 -17 -114 -33 -185 -48 -313
-113 -368 -184 -35 -46 -69 -148 -96 -289 -23 -118 -32 -306 -14 -307 6 0 417
245 914 545 497 300 905 544 907 542 2 -2 -237 -387 -532 -856 -294 -469 -533
-856 -530 -859 3 -3 70 5 148 17 193 31 277 36 381 22 271 -36 504 -180 681
-421 169 -229 190 -440 69 -672 -20 -38 -39 -68 -43 -68 -4 0 -40 22 -81 49
-188 123 -307 154 -453 116 -127 -33 -315 -148 -500 -306 l-109 -93 -171 13
c-94 7 -232 15 -308 18 l-136 6 -5 26 c-3 14 -3 29 -1 32 2 3 36 9 76 12 202
18 391 113 637 321 233 197 336 247 542 266 91 8 132 7 204 -4 49 -9 91 -13
93 -11 6 5 -18 42 -67 108 -65 88 -205 178 -351 226 -173 56 -488 41 -688 -35
-127 -48 -311 -172 -508 -344 l-100 -88 -50 80 c-27 44 -55 90 -63 102 -13 20
11 56 431 641 511 713 562 785 557 789 -2 2 -301 -215 -664 -481 -363 -267
-665 -487 -672 -490 -7 -3 -29 13 -50 34 -21 21 -65 62 -98 90 l-60 52 97 91
c79 74 104 105 133 163 61 126 66 161 75 502 9 320 15 369 56 464 48 107 158
236 276 319 21 15 38 30 38 34 0 4 -15 15 -32 25 -50 27 -221 25 -313 -4 -205
-65 -405 -264 -545 -542 -52 -105 -103 -256 -130 -391 -22 -107 -45 -423 -34
-466 4 -16 2 -24 -7 -24 -11 0 -251 51 -256 54 -6 4 -57 304 -97 571 -85 555
-127 809 -163 975 -30 145 -52 219 -53 184 0 -7 -20 -121 -44 -255 -45 -247
-190 -1132 -222 -1356 -14 -96 -22 -123 -34 -123 -8 0 -64 -11 -124 -25 -60
-14 -111 -23 -114 -21 -2 2 -5 62 -7 134 -6 236 -37 296 -303 585 -220 239
-312 384 -348 543 -19 89 -15 211 11 308 9 32 14 60 12 63 -10 9 -65 -27 -101
-67 -87 -96 -160 -234 -198 -370 -26 -97 -36 -319 -18 -428 39 -243 161 -470
437 -810 69 -86 121 -158 115 -160 -9 -3 -53 -35 -167 -124 -22 -17 -24 -17
-76 21 -282 199 -1252 890 -1278 910 -19 14 -31 19 -26 11 5 -8 231 -322 502
-698 271 -375 493 -687 493 -692 0 -10 -99 -251 -106 -259 -2 -2 -48 38 -102
90 -110 106 -183 150 -298 179 -98 25 -270 27 -444 4 -69 -9 -195 -17 -280
-18 -147 -1 -158 0 -217 26 -172 73 -321 188 -363 278 -22 48 -25 50 -31 29
-43 -152 62 -434 224 -607 246 -262 499 -337 1144 -337 238 0 272 -2 268 -15
-2 -8 -7 -31 -10 -52 l-7 -36 -146 -6 c-230 -9 -524 -26 -559 -33 -26 -4 -33
-10 -33 -28 0 -21 -3 -23 -42 -18 -93 11 -293 55 -386 84 -320 103 -556 289
-661 521 -58 127 -76 225 -76 413 0 161 2 175 29 259 33 99 102 212 166 270
44 40 208 151 213 145 2 -2 23 -60 47 -129 128 -372 218 -418 755 -392 131 6
240 13 243 16 2 3 -263 434 -589 957 -327 524 -598 959 -603 967 -7 12 0 11
25 -5 19 -11 320 -195 669 -408 349 -213 693 -423 764 -466 l128 -79 -6 33
c-20 97 -38 311 -39 447 0 128 4 169 21 233 93 339 364 606 680 668 76 14 214
7 291 -16 55 -17 131 -61 131 -76 0 -4 -22 -37 -50 -73 -27 -37 -73 -114 -102
-172 -51 -103 -53 -110 -53 -188 0 -70 4 -90 31 -146 52 -109 277 -400 308
-400 10 0 97 334 287 1095 151 602 277 1089 280 1082 4 -7 113 -435 244 -952z
m35 -2420 c355 -77 644 -282 867 -615 123 -185 198 -361 217 -511 l7 -55 -163
-12 c-465 -34 -829 -144 -1114 -337 l-95 -65 -92 60 c-110 73 -294 168 -395
204 -188 67 -463 122 -694 138 l-171 12 6 63 c17 177 174 493 352 705 95 114
297 252 478 328 97 41 248 83 352 100 87 13 356 4 445 -15z m1670 -1435 c96
-6 190 -13 208 -16 l32 -5 0 -1599 0 -1600 -32 0 c-18 0 -105 -5 -193 -10
-360 -23 -612 -88 -906 -236 -316 -158 -576 -337 -862 -593 -65 -58 -123 -107
-128 -109 -5 -2 -9 225 -9 572 l0 576 -65 0 -65 0 -2 -576 -3 -577 -165 143
c-194 168 -275 231 -436 338 -456 302 -906 460 -1373 479 l-154 6 6 180 c4 99
7 816 7 1592 l0 1413 33 5 c17 4 163 11 322 18 784 31 1380 -86 1610 -317 97
-96 141 -212 152 -396 l6 -108 64 0 63 0 0 53 c0 121 19 220 54 292 63 127
205 242 398 320 177 72 502 146 723 165 125 10 456 6 715 -10z m-4410 -140 l0
-120 -204 0 -204 0 -6 -262 c-3 -145 -9 -677 -14 -1183 l-7 -920 -132 231
c-343 600 -493 936 -577 1294 -52 219 -59 291 -63 698 l-5 382 606 0 606 0 0
-120z m6107 -252 c-6 -402 -19 -558 -62 -738 -90 -375 -327 -885 -654 -1404
l-81 -130 0 1202 0 1202 -200 0 -200 0 0 120 0 120 601 0 602 0 -6 -372z
m-6097 -1460 c0 -754 -2 -1369 -5 -1367 -2 3 -54 68 -115 144 l-110 140 0
1228 0 1227 115 0 115 0 0 -1372z m5120 164 l0 -1208 -105 -142 c-58 -78 -107
-142 -110 -142 -3 0 -5 608 -5 1350 l0 1350 110 0 110 0 0 -1208z m-4613
-1772 c275 -21 397 -56 663 -188 l175 -87 -435 -3 -435 -3 -132 138 c-73 76
-132 141 -133 146 0 10 141 9 297 -3z m4173 4 c0 -4 -59 -69 -131 -145 l-131
-139 -451 0 -452 0 36 24 c68 46 224 124 319 159 149 55 320 86 555 100 101 7
255 7 255 1z m-2894 -550 c49 -37 114 -87 144 -112 77 -65 348 -312 352 -322
2 -4 40 -46 85 -94 l81 -87 89 92 c106 111 462 434 578 524 l83 65 529 -2 528
-3 -125 -123 c-223 -221 -676 -635 -980 -898 -234 -203 -693 -549 -712 -538
-44 26 -444 323 -563 419 -310 247 -664 567 -1005 909 l-235 236 531 0 531 0
89 -66z"/>
<path d="M5390 5312 c-124 -42 -205 -105 -265 -207 -103 -173 -106 -385 -10
-580 78 -156 218 -306 620 -664 132 -118 256 -229 276 -248 l37 -35 258 228
c442 389 580 535 655 689 173 357 60 721 -255 817 -56 17 -85 20 -165 16 -157
-9 -267 -60 -421 -198 l-75 -68 -68 63 c-147 138 -272 196 -432 202 -78 2
-112 -1 -155 -15z"/>
</g>
</svg>
