<?xml version="1.0" standalone="no"?>
<!DOCTYPE svg PUBLIC "-//W3C//DTD SVG 20010904//EN"
 "http://www.w3.org/TR/2001/REC-SVG-20010904/DTD/svg10.dtd">
<svg version="1.0" xmlns="http://www.w3.org/2000/svg"
 width="329.000000pt" height="153.000000pt" viewBox="0 0 329.000000 153.000000"
 preserveAspectRatio="xMidYMid meet">

<g transform="translate(0.000000,153.000000) scale(0.100000,-0.100000)"
fill="#000000" stroke="none">
<path d="M62 1448 c25 -46 208 -388 408 -761 200 -373 367 -674 371 -670 4 4
141 256 304 558 164 303 309 570 323 595 36 64 114 142 170 173 104 56 112 57
789 57 343 0 623 -2 623 -5 0 -2 -27 -54 -61 -115 l-60 -110 -277 -2 -276 -3
-272 -510 -272 -510 -136 -3 c-75 -1 -136 -1 -136 2 0 2 96 181 213 398 118
216 242 446 276 510 l63 118 -269 0 -269 0 -36 -62 -36 -63 195 -3 c180 -2
194 -4 188 -20 -3 -9 -125 -238 -271 -508 -145 -271 -264 -495 -264 -498 0 -3
126 -6 279 -6 l280 0 55 103 c30 56 153 286 274 512 l219 410 279 5 279 5 127
240 127 240 -725 3 c-809 2 -807 3 -944 -64 -122 -60 -195 -143 -306 -350
-197 -365 -446 -819 -453 -827 -7 -7 -573 1034 -597 1096 -6 16 5 17 127 17
l134 -1 160 -299 c88 -165 162 -300 165 -300 3 0 80 134 171 298 l166 297 99
3 c93 3 101 4 129 31 16 16 52 45 79 65 l48 36 -213 -2 -213 -3 -31 -55 c-18
-30 -77 -135 -132 -233 l-100 -178 -125 233 -125 233 -283 3 -282 2 44 -82z"/>
</g>
</svg>
